<svg xmlns="http://www.w3.org/2000/svg" viewBox="0 0 77 10" id="svg2202393895"><path d="M 8.035 6.099 C 7.913 6.218 7.856 6.39 7.884 6.559 L 8.305 8.889 C 8.341 9.086 8.257 9.286 8.092 9.4 C 7.93 9.519 7.715 9.533 7.538 9.438 L 5.442 8.344 C 5.369 8.305 5.288 8.285 5.205 8.282 L 5.077 8.282 C 5.033 8.289 4.989 8.303 4.949 8.325 L 2.853 9.424 C 2.749 9.476 2.632 9.495 2.517 9.476 C 2.236 9.423 2.05 9.156 2.095 8.874 L 2.517 6.544 C 2.545 6.374 2.488 6.201 2.366 6.08 L 0.657 4.422 C 0.514 4.284 0.464 4.075 0.529 3.887 C 0.593 3.7 0.755 3.563 0.95 3.532 L 3.302 3.19 C 3.481 3.172 3.638 3.063 3.719 2.902 L 4.755 0.775 C 4.78 0.728 4.812 0.684 4.85 0.647 L 4.893 0.614 C 4.915 0.59 4.94 0.569 4.969 0.553 L 5.02 0.534 L 5.101 0.501 L 5.3 0.501 C 5.478 0.519 5.635 0.626 5.717 0.785 L 6.767 2.902 C 6.843 3.057 6.99 3.164 7.16 3.19 L 9.512 3.532 C 9.711 3.56 9.877 3.698 9.943 3.887 C 10.005 4.077 9.951 4.286 9.806 4.422 Z" fill="var(--token-4fdd7769-e1d0-45b2-8e3d-fe484baba321, rgb(191, 51, 19))"/><path d="M 24.669 6.099 C 24.546 6.218 24.49 6.39 24.518 6.559 L 24.938 8.889 C 24.974 9.086 24.89 9.286 24.725 9.4 C 24.563 9.519 24.348 9.533 24.172 9.438 L 22.075 8.344 C 22.002 8.305 21.921 8.285 21.839 8.282 L 21.71 8.282 C 21.666 8.289 21.622 8.303 21.583 8.325 L 19.486 9.424 C 19.382 9.476 19.265 9.495 19.15 9.476 C 18.87 9.423 18.683 9.156 18.729 8.874 L 19.15 6.544 C 19.178 6.374 19.121 6.201 18.999 6.08 L 17.29 4.422 C 17.147 4.284 17.097 4.075 17.162 3.887 C 17.226 3.7 17.388 3.563 17.583 3.532 L 19.936 3.19 C 20.114 3.172 20.272 3.063 20.352 2.902 L 21.389 0.775 C 21.413 0.728 21.445 0.684 21.483 0.647 L 21.526 0.614 C 21.548 0.59 21.574 0.569 21.602 0.553 L 21.654 0.534 L 21.734 0.501 L 21.933 0.501 C 22.111 0.519 22.268 0.626 22.35 0.785 L 23.4 2.902 C 23.476 3.057 23.623 3.164 23.793 3.19 L 26.145 3.532 C 26.344 3.56 26.51 3.698 26.576 3.887 C 26.638 4.077 26.584 4.286 26.439 4.422 Z" fill="var(--token-4fdd7769-e1d0-45b2-8e3d-fe484baba321, rgb(191, 51, 19))"/><path d="M 41.302 6.099 C 41.179 6.218 41.123 6.39 41.151 6.559 L 41.571 8.889 C 41.607 9.086 41.524 9.286 41.358 9.4 C 41.197 9.519 40.981 9.533 40.805 9.438 L 38.708 8.344 C 38.636 8.305 38.555 8.285 38.472 8.282 L 38.344 8.282 C 38.299 8.289 38.256 8.303 38.216 8.325 L 36.119 9.424 C 36.015 9.476 35.898 9.495 35.783 9.476 C 35.503 9.423 35.316 9.156 35.362 8.874 L 35.783 6.544 C 35.811 6.374 35.755 6.201 35.632 6.08 L 33.923 4.422 C 33.78 4.284 33.73 4.075 33.796 3.887 C 33.859 3.7 34.021 3.563 34.216 3.532 L 36.569 3.19 C 36.748 3.172 36.905 3.063 36.985 2.902 L 38.022 0.775 C 38.046 0.728 38.078 0.684 38.116 0.647 L 38.159 0.614 C 38.181 0.59 38.207 0.569 38.235 0.553 L 38.287 0.534 L 38.367 0.501 L 38.566 0.501 C 38.744 0.519 38.901 0.626 38.983 0.785 L 40.033 2.902 C 40.109 3.057 40.256 3.164 40.426 3.19 L 42.778 3.532 C 42.977 3.56 43.143 3.698 43.209 3.887 C 43.271 4.077 43.218 4.286 43.072 4.422 Z" fill="var(--token-4fdd7769-e1d0-45b2-8e3d-fe484baba321, rgb(191, 51, 19))"/><path d="M 57.935 6.099 C 57.812 6.218 57.756 6.39 57.784 6.559 L 58.205 8.889 C 58.24 9.086 58.157 9.286 57.992 9.4 C 57.83 9.519 57.614 9.533 57.438 9.438 L 55.342 8.344 C 55.269 8.305 55.188 8.285 55.105 8.282 L 54.977 8.282 C 54.932 8.289 54.889 8.303 54.849 8.325 L 52.752 9.424 C 52.649 9.476 52.531 9.495 52.416 9.476 C 52.136 9.423 51.949 9.156 51.995 8.874 L 52.416 6.544 C 52.444 6.374 52.388 6.201 52.265 6.08 L 50.556 4.422 C 50.413 4.284 50.363 4.075 50.429 3.887 C 50.492 3.7 50.654 3.563 50.849 3.532 L 53.202 3.19 C 53.381 3.172 53.538 3.063 53.618 2.902 L 54.655 0.775 C 54.68 0.728 54.711 0.684 54.749 0.647 L 54.792 0.614 C 54.814 0.59 54.84 0.569 54.868 0.553 L 54.92 0.534 L 55 0.501 L 55.2 0.501 C 55.378 0.519 55.534 0.626 55.616 0.785 L 56.666 2.902 C 56.742 3.057 56.889 3.164 57.059 3.19 L 59.412 3.532 C 59.61 3.56 59.777 3.698 59.842 3.887 C 59.904 4.077 59.851 4.286 59.705 4.422 Z" fill="var(--token-4fdd7769-e1d0-45b2-8e3d-fe484baba321, rgb(191, 51, 19))"/><path d="M 74.568 6.099 C 74.445 6.218 74.389 6.39 74.417 6.559 L 74.838 8.889 C 74.873 9.086 74.79 9.286 74.625 9.4 C 74.463 9.519 74.247 9.533 74.071 9.438 L 71.975 8.344 C 71.902 8.305 71.821 8.285 71.738 8.282 L 71.61 8.282 C 71.565 8.289 71.522 8.303 71.482 8.325 L 69.385 9.424 C 69.282 9.476 69.164 9.495 69.049 9.476 C 68.769 9.423 68.582 9.156 68.628 8.874 L 69.049 6.544 C 69.077 6.374 69.021 6.201 68.898 6.08 L 67.189 4.422 C 67.046 4.284 66.997 4.075 67.062 3.887 C 67.125 3.7 67.287 3.563 67.483 3.532 L 69.835 3.19 C 70.014 3.172 70.171 3.063 70.251 2.902 L 71.288 0.775 C 71.313 0.728 71.344 0.684 71.382 0.647 L 71.425 0.614 C 71.447 0.59 71.473 0.569 71.501 0.553 L 71.553 0.534 L 71.634 0.501 L 71.833 0.501 C 72.011 0.519 72.168 0.626 72.249 0.785 L 73.299 2.902 C 73.375 3.057 73.522 3.164 73.692 3.19 L 76.045 3.532 C 76.243 3.56 76.41 3.698 76.475 3.887 C 76.538 4.077 76.484 4.286 76.338 4.422 Z" fill="var(--token-4fdd7769-e1d0-45b2-8e3d-fe484baba321, rgb(191, 51, 19))"/></svg>