<svg xmlns="http://www.w3.org/2000/svg" viewBox="0 0 97 12" id="svg8926117321"><path d="M 10.122 7.429 C 9.968 7.583 9.897 7.807 9.932 8.026 L 10.462 11.056 C 10.507 11.312 10.402 11.572 10.194 11.721 C 9.99 11.875 9.719 11.893 9.496 11.77 L 6.856 10.348 C 6.764 10.297 6.662 10.27 6.558 10.267 L 6.396 10.267 C 6.34 10.276 6.285 10.294 6.235 10.322 L 3.594 11.751 C 3.463 11.819 3.315 11.843 3.17 11.819 C 2.817 11.75 2.582 11.403 2.64 11.037 L 3.17 8.007 C 3.206 7.786 3.135 7.561 2.98 7.404 L 0.827 5.249 C 0.647 5.069 0.584 4.798 0.667 4.553 C 0.747 4.309 0.951 4.132 1.197 4.092 L 4.16 3.648 C 4.386 3.624 4.583 3.482 4.685 3.273 L 5.991 0.508 C 6.022 0.446 6.062 0.39 6.11 0.342 L 6.163 0.299 C 6.191 0.267 6.224 0.24 6.259 0.218 L 6.324 0.194 L 6.426 0.151 L 6.677 0.151 C 6.901 0.175 7.098 0.313 7.202 0.52 L 8.525 3.273 C 8.62 3.474 8.805 3.614 9.019 3.648 L 11.983 4.092 C 12.233 4.128 12.442 4.307 12.525 4.553 C 12.603 4.8 12.536 5.071 12.352 5.249 Z" fill="var(--token-9f0badbf-8d74-41b8-a73a-e1a6bdec487b, rgb(255, 132, 66))"/><path d="M 31.076 7.429 C 30.922 7.583 30.851 7.807 30.886 8.026 L 31.416 11.056 C 31.46 11.312 31.356 11.572 31.147 11.721 C 30.944 11.875 30.672 11.893 30.45 11.77 L 27.809 10.348 C 27.717 10.297 27.615 10.27 27.511 10.267 L 27.349 10.267 C 27.293 10.276 27.239 10.294 27.188 10.322 L 24.547 11.751 C 24.417 11.819 24.269 11.843 24.124 11.819 C 23.771 11.75 23.535 11.403 23.593 11.037 L 24.124 8.007 C 24.159 7.786 24.088 7.561 23.934 7.404 L 21.781 5.249 C 21.601 5.069 21.538 4.798 21.62 4.553 C 21.7 4.309 21.904 4.132 22.15 4.092 L 25.114 3.648 C 25.339 3.624 25.537 3.482 25.638 3.273 L 26.944 0.508 C 26.975 0.446 27.015 0.39 27.063 0.342 L 27.117 0.299 C 27.145 0.267 27.177 0.24 27.213 0.218 L 27.278 0.194 L 27.379 0.151 L 27.63 0.151 C 27.854 0.175 28.052 0.313 28.155 0.52 L 29.478 3.273 C 29.573 3.474 29.759 3.614 29.973 3.648 L 32.936 4.092 C 33.187 4.128 33.396 4.307 33.479 4.553 C 33.557 4.8 33.489 5.071 33.306 5.249 Z" fill="var(--token-9f0badbf-8d74-41b8-a73a-e1a6bdec487b, rgb(255, 132, 66))"/><path d="M 52.029 7.429 C 51.875 7.583 51.804 7.807 51.839 8.026 L 52.369 11.056 C 52.414 11.312 52.309 11.572 52.101 11.721 C 51.897 11.875 51.626 11.893 51.403 11.77 L 48.763 10.348 C 48.671 10.297 48.569 10.27 48.464 10.267 L 48.303 10.267 C 48.247 10.276 48.192 10.294 48.142 10.322 L 45.501 11.751 C 45.37 11.819 45.222 11.843 45.077 11.819 C 44.724 11.75 44.489 11.403 44.547 11.037 L 45.077 8.007 C 45.112 7.786 45.041 7.561 44.887 7.404 L 42.734 5.249 C 42.554 5.069 42.491 4.798 42.574 4.553 C 42.654 4.309 42.857 4.132 43.104 4.092 L 46.067 3.648 C 46.292 3.624 46.49 3.482 46.592 3.273 L 47.897 0.508 C 47.928 0.446 47.968 0.39 48.017 0.342 L 48.07 0.299 C 48.098 0.267 48.131 0.24 48.166 0.218 L 48.231 0.194 L 48.333 0.151 L 48.584 0.151 C 48.808 0.175 49.005 0.313 49.108 0.52 L 50.431 3.273 C 50.527 3.474 50.712 3.614 50.926 3.648 L 53.89 4.092 C 54.14 4.128 54.35 4.307 54.432 4.553 C 54.511 4.8 54.443 5.071 54.259 5.249 Z" fill="var(--token-9f0badbf-8d74-41b8-a73a-e1a6bdec487b, rgb(255, 132, 66))"/><path d="M 72.983 7.429 C 72.828 7.583 72.757 7.807 72.793 8.026 L 73.323 11.056 C 73.368 11.312 73.262 11.572 73.054 11.721 C 72.85 11.875 72.579 11.893 72.357 11.77 L 69.716 10.348 C 69.624 10.297 69.522 10.27 69.418 10.267 L 69.256 10.267 C 69.2 10.276 69.145 10.294 69.095 10.322 L 66.454 11.751 C 66.324 11.819 66.175 11.843 66.031 11.819 C 65.678 11.75 65.442 11.403 65.5 11.037 L 66.031 8.007 C 66.066 7.786 65.995 7.561 65.841 7.404 L 63.688 5.249 C 63.507 5.069 63.445 4.798 63.527 4.553 C 63.607 4.309 63.811 4.132 64.057 4.092 L 67.02 3.648 C 67.246 3.624 67.444 3.482 67.545 3.273 L 68.851 0.508 C 68.882 0.446 68.922 0.39 68.97 0.342 L 69.024 0.299 C 69.052 0.267 69.084 0.24 69.12 0.218 L 69.185 0.194 L 69.286 0.151 L 69.537 0.151 C 69.762 0.175 69.959 0.313 70.062 0.52 L 71.385 3.273 C 71.48 3.474 71.666 3.614 71.88 3.648 L 74.843 4.092 C 75.093 4.128 75.303 4.307 75.386 4.553 C 75.464 4.8 75.397 5.071 75.213 5.249 Z" fill="var(--token-9f0badbf-8d74-41b8-a73a-e1a6bdec487b, rgb(255, 132, 66))"/><path d="M 93.936 7.429 C 93.782 7.583 93.711 7.807 93.746 8.026 L 94.276 11.056 C 94.321 11.312 94.216 11.572 94.008 11.721 C 93.804 11.875 93.533 11.893 93.31 11.77 L 90.67 10.348 C 90.578 10.297 90.476 10.27 90.372 10.267 L 90.21 10.267 C 90.154 10.276 90.099 10.294 90.049 10.322 L 87.407 11.751 C 87.277 11.819 87.129 11.843 86.984 11.819 C 86.631 11.75 86.396 11.403 86.453 11.037 L 86.984 8.007 C 87.02 7.786 86.949 7.561 86.794 7.404 L 84.641 5.249 C 84.461 5.069 84.398 4.798 84.481 4.553 C 84.56 4.309 84.764 4.132 85.011 4.092 L 87.974 3.648 C 88.199 3.624 88.397 3.482 88.499 3.273 L 89.804 0.508 C 89.836 0.446 89.875 0.39 89.923 0.342 L 89.977 0.299 C 90.005 0.267 90.037 0.24 90.073 0.218 L 90.138 0.194 L 90.24 0.151 L 90.491 0.151 C 90.715 0.175 90.912 0.313 91.016 0.52 L 92.338 3.273 C 92.434 3.474 92.619 3.614 92.833 3.648 L 95.797 4.092 C 96.047 4.128 96.256 4.307 96.339 4.553 C 96.417 4.8 96.35 5.071 96.166 5.249 Z" fill="var(--token-9f0badbf-8d74-41b8-a73a-e1a6bdec487b, rgb(255, 132, 66))"/></svg>